<svg xmlns="http://www.w3.org/2000/svg" xmlns:xlink="http://www.w3.org/1999/xlink" id="body_1" width="28" height="28">

<g transform="matrix(1.2 0 0 1.3 0 0)">
    <path d="M5.755 20.283L4 8L20 8L18.245 20.283C 18.104168 21.268274 17.260288 22.000063 16.265 22L16.265 22L7.735 22C 6.7397127 22.000061 5.8958335 21.268274 5.755 20.283zM21 4L16 4L16 3C 16 2.4477153 15.552285 2 15 2L15 2L9 2C 8.447715 2 8 2.4477153 8 3L8 3L8 4L3 4C 2.4477153 4 2 4.4477153 2 5C 2 5.5522847 2.4477153 6 3 6L3 6L21 6C 21.552284 6 22 5.5522847 22 5C 22 4.4477153 21.552284 4 21 4z" stroke="none" fill="red" fill-rule="nonzero" />
</g>
</svg>
